<?xml version="1.0" encoding="UTF-8"?>
<svg xmlns="http://www.w3.org/2000/svg" xmlns:xlink="http://www.w3.org/1999/xlink" width="854" height="480" viewBox="0 0 854 480">
<defs>
<g>
<g id="glyph-0-0">
<path d="M 0.109375 0 L 0.109375 -0.109375 L 0.140625 -0.109375 C 0.203125 -0.109375 0.253906 -0.117188 0.296875 -0.140625 C 0.347656 -0.171875 0.375 -0.226562 0.375 -0.3125 L 0.375 -1.671875 C 0.375 -1.753906 0.347656 -1.804688 0.296875 -1.828125 C 0.253906 -1.859375 0.203125 -1.875 0.140625 -1.875 L 0.109375 -1.875 L 0.109375 -1.984375 L 0.921875 -1.984375 L 0.921875 -1.875 L 0.875 -1.875 C 0.8125 -1.875 0.757812 -1.859375 0.71875 -1.828125 C 0.675781 -1.804688 0.65625 -1.753906 0.65625 -1.671875 L 0.65625 -0.3125 C 0.65625 -0.226562 0.675781 -0.171875 0.71875 -0.140625 C 0.757812 -0.117188 0.8125 -0.109375 0.875 -0.109375 L 0.921875 -0.109375 L 0.921875 0 Z "/>
</g>
<g id="glyph-0-1">
<path d="M 0.796875 0.03125 C 0.597656 0.03125 0.441406 -0.03125 0.328125 -0.15625 C 0.210938 -0.289062 0.15625 -0.488281 0.15625 -0.75 C 0.15625 -1.007812 0.207031 -1.203125 0.3125 -1.328125 C 0.425781 -1.453125 0.59375 -1.515625 0.8125 -1.515625 C 1.007812 -1.515625 1.164062 -1.453125 1.28125 -1.328125 C 1.394531 -1.203125 1.453125 -1.007812 1.453125 -0.75 C 1.453125 -0.488281 1.394531 -0.289062 1.28125 -0.15625 C 1.175781 -0.03125 1.015625 0.03125 0.796875 0.03125 Z M 0.796875 -0.109375 C 0.941406 -0.109375 1.039062 -0.160156 1.09375 -0.265625 C 1.15625 -0.378906 1.1875 -0.539062 1.1875 -0.75 C 1.1875 -0.957031 1.15625 -1.113281 1.09375 -1.21875 C 1.039062 -1.320312 0.941406 -1.375 0.796875 -1.375 C 0.660156 -1.375 0.5625 -1.320312 0.5 -1.21875 C 0.445312 -1.113281 0.421875 -0.957031 0.421875 -0.75 C 0.421875 -0.539062 0.445312 -0.378906 0.5 -0.265625 C 0.5625 -0.160156 0.660156 -0.109375 0.796875 -0.109375 Z "/>
</g>
<g id="glyph-0-2">
<path d="M 0.078125 0 L 0.078125 -0.109375 L 0.09375 -0.109375 C 0.15625 -0.109375 0.207031 -0.117188 0.25 -0.140625 C 0.300781 -0.171875 0.328125 -0.226562 0.328125 -0.3125 L 0.328125 -1.1875 C 0.328125 -1.269531 0.304688 -1.320312 0.265625 -1.34375 C 0.222656 -1.363281 0.171875 -1.375 0.109375 -1.375 L 0.09375 -1.375 L 0.09375 -1.484375 L 0.546875 -1.484375 L 0.578125 -1.265625 L 0.59375 -1.265625 C 0.644531 -1.367188 0.707031 -1.4375 0.78125 -1.46875 C 0.851562 -1.5 0.9375 -1.515625 1.03125 -1.515625 C 1.175781 -1.515625 1.289062 -1.472656 1.375 -1.390625 C 1.457031 -1.304688 1.5 -1.164062 1.5 -0.96875 L 1.5 -0.3125 C 1.5 -0.226562 1.515625 -0.171875 1.546875 -0.140625 C 1.585938 -0.117188 1.640625 -0.109375 1.703125 -0.109375 L 1.71875 -0.109375 L 1.71875 0 L 1.234375 0 L 1.234375 -0.953125 C 1.234375 -1.078125 1.207031 -1.171875 1.15625 -1.234375 C 1.113281 -1.304688 1.035156 -1.34375 0.921875 -1.34375 C 0.835938 -1.34375 0.769531 -1.320312 0.71875 -1.28125 C 0.675781 -1.238281 0.644531 -1.179688 0.625 -1.109375 C 0.601562 -1.046875 0.59375 -0.972656 0.59375 -0.890625 L 0.59375 -0.296875 C 0.59375 -0.222656 0.613281 -0.171875 0.65625 -0.140625 C 0.695312 -0.117188 0.75 -0.109375 0.8125 -0.109375 L 0.828125 -0.109375 L 0.828125 0 Z "/>
</g>
<g id="glyph-0-3">
</g>
<g id="glyph-0-4">
<path d="M 0.453125 -1.765625 C 0.398438 -1.765625 0.359375 -1.773438 0.328125 -1.796875 C 0.304688 -1.828125 0.296875 -1.875 0.296875 -1.9375 C 0.296875 -2 0.304688 -2.039062 0.328125 -2.0625 C 0.359375 -2.09375 0.398438 -2.109375 0.453125 -2.109375 C 0.492188 -2.109375 0.53125 -2.09375 0.5625 -2.0625 C 0.59375 -2.039062 0.609375 -2 0.609375 -1.9375 C 0.609375 -1.875 0.59375 -1.828125 0.5625 -1.796875 C 0.53125 -1.773438 0.492188 -1.765625 0.453125 -1.765625 Z M 0.0625 0 L 0.0625 -0.109375 L 0.09375 -0.109375 C 0.15625 -0.109375 0.207031 -0.117188 0.25 -0.140625 C 0.300781 -0.171875 0.328125 -0.222656 0.328125 -0.296875 L 0.328125 -1.1875 C 0.328125 -1.269531 0.300781 -1.320312 0.25 -1.34375 C 0.207031 -1.363281 0.15625 -1.375 0.09375 -1.375 L 0.09375 -1.484375 L 0.59375 -1.484375 L 0.59375 -0.3125 C 0.59375 -0.226562 0.613281 -0.171875 0.65625 -0.140625 C 0.695312 -0.117188 0.75 -0.109375 0.8125 -0.109375 L 0.859375 -0.109375 L 0.859375 0 Z "/>
</g>
<g id="glyph-0-5">
<path d="M 0.6875 0.03125 C 0.507812 0.03125 0.375 -0.00390625 0.28125 -0.078125 C 0.1875 -0.148438 0.140625 -0.242188 0.140625 -0.359375 C 0.140625 -0.421875 0.15625 -0.46875 0.1875 -0.5 C 0.21875 -0.53125 0.265625 -0.546875 0.328125 -0.546875 C 0.335938 -0.472656 0.351562 -0.398438 0.375 -0.328125 C 0.40625 -0.265625 0.445312 -0.210938 0.5 -0.171875 C 0.550781 -0.128906 0.617188 -0.109375 0.703125 -0.109375 C 0.828125 -0.109375 0.925781 -0.140625 1 -0.203125 C 1.070312 -0.265625 1.109375 -0.347656 1.109375 -0.453125 C 1.109375 -0.523438 1.09375 -0.582031 1.0625 -0.625 C 1.039062 -0.675781 1 -0.722656 0.9375 -0.765625 C 0.875 -0.804688 0.785156 -0.847656 0.671875 -0.890625 C 0.503906 -0.960938 0.378906 -1.046875 0.296875 -1.140625 C 0.210938 -1.234375 0.171875 -1.359375 0.171875 -1.515625 C 0.171875 -1.617188 0.195312 -1.707031 0.25 -1.78125 C 0.300781 -1.851562 0.367188 -1.910156 0.453125 -1.953125 C 0.546875 -1.992188 0.648438 -2.015625 0.765625 -2.015625 C 0.929688 -2.015625 1.0625 -1.984375 1.15625 -1.921875 C 1.25 -1.859375 1.296875 -1.785156 1.296875 -1.703125 C 1.296875 -1.640625 1.273438 -1.59375 1.234375 -1.5625 C 1.191406 -1.53125 1.140625 -1.515625 1.078125 -1.515625 C 1.078125 -1.578125 1.066406 -1.632812 1.046875 -1.6875 C 1.023438 -1.738281 0.988281 -1.78125 0.9375 -1.8125 C 0.894531 -1.851562 0.835938 -1.875 0.765625 -1.875 C 0.648438 -1.875 0.5625 -1.84375 0.5 -1.78125 C 0.445312 -1.726562 0.421875 -1.65625 0.421875 -1.5625 C 0.421875 -1.488281 0.429688 -1.425781 0.453125 -1.375 C 0.484375 -1.320312 0.53125 -1.273438 0.59375 -1.234375 C 0.65625 -1.191406 0.742188 -1.148438 0.859375 -1.109375 C 1.015625 -1.035156 1.140625 -0.957031 1.234375 -0.875 C 1.328125 -0.789062 1.375 -0.675781 1.375 -0.53125 C 1.375 -0.351562 1.3125 -0.210938 1.1875 -0.109375 C 1.0625 -0.015625 0.894531 0.03125 0.6875 0.03125 Z "/>
</g>
<g id="glyph-0-6">
<path d="M 0.03125 0 L 0.03125 -0.109375 L 0.078125 -0.109375 C 0.140625 -0.109375 0.191406 -0.117188 0.234375 -0.140625 C 0.273438 -0.171875 0.296875 -0.226562 0.296875 -0.3125 L 0.296875 -1.8125 C 0.296875 -1.894531 0.273438 -1.945312 0.234375 -1.96875 C 0.191406 -1.988281 0.140625 -2 0.078125 -2 L 0.03125 -2 L 0.03125 -2.109375 L 0.5625 -2.109375 L 0.5625 -0.3125 C 0.5625 -0.226562 0.582031 -0.171875 0.625 -0.140625 C 0.664062 -0.117188 0.722656 -0.109375 0.796875 -0.109375 L 0.828125 -0.109375 L 0.828125 0 Z "/>
</g>
<g id="glyph-0-7">
<path d="M 0.765625 0.03125 C 0.617188 0.03125 0.503906 -0.0078125 0.421875 -0.09375 C 0.335938 -0.1875 0.296875 -0.328125 0.296875 -0.515625 L 0.296875 -1.1875 C 0.296875 -1.269531 0.273438 -1.320312 0.234375 -1.34375 C 0.191406 -1.363281 0.140625 -1.375 0.078125 -1.375 L 0.0625 -1.375 L 0.0625 -1.484375 L 0.5625 -1.484375 L 0.5625 -0.53125 C 0.5625 -0.40625 0.582031 -0.3125 0.625 -0.25 C 0.664062 -0.1875 0.742188 -0.15625 0.859375 -0.15625 C 0.972656 -0.15625 1.054688 -0.191406 1.109375 -0.265625 C 1.171875 -0.347656 1.203125 -0.457031 1.203125 -0.59375 L 1.203125 -1.171875 C 1.203125 -1.253906 1.179688 -1.304688 1.140625 -1.328125 C 1.097656 -1.359375 1.039062 -1.375 0.96875 -1.375 L 0.96875 -1.484375 L 1.46875 -1.484375 L 1.46875 -0.296875 C 1.46875 -0.222656 1.488281 -0.171875 1.53125 -0.140625 C 1.582031 -0.117188 1.632812 -0.109375 1.6875 -0.109375 L 1.703125 -0.109375 L 1.703125 0 L 1.265625 0 L 1.21875 -0.21875 L 1.203125 -0.21875 C 1.148438 -0.113281 1.082031 -0.046875 1 -0.015625 C 0.925781 0.015625 0.847656 0.03125 0.765625 0.03125 Z "/>
</g>
<g id="glyph-0-8">
<path d="M 0.671875 0.03125 C 0.523438 0.03125 0.421875 0 0.359375 -0.0625 C 0.296875 -0.132812 0.265625 -0.25 0.265625 -0.40625 L 0.265625 -1.328125 L 0.046875 -1.328125 L 0.046875 -1.4375 C 0.0859375 -1.4375 0.125 -1.441406 0.15625 -1.453125 C 0.195312 -1.472656 0.234375 -1.5 0.265625 -1.53125 C 0.296875 -1.5625 0.320312 -1.601562 0.34375 -1.65625 C 0.363281 -1.707031 0.378906 -1.765625 0.390625 -1.828125 L 0.53125 -1.828125 L 0.53125 -1.484375 L 0.890625 -1.484375 L 0.890625 -1.328125 L 0.53125 -1.328125 L 0.53125 -0.390625 C 0.53125 -0.296875 0.546875 -0.226562 0.578125 -0.1875 C 0.617188 -0.144531 0.671875 -0.125 0.734375 -0.125 C 0.765625 -0.125 0.796875 -0.125 0.828125 -0.125 C 0.859375 -0.125 0.890625 -0.128906 0.921875 -0.140625 L 0.921875 -0.015625 C 0.890625 -0.00390625 0.847656 0.00390625 0.796875 0.015625 C 0.753906 0.0234375 0.710938 0.03125 0.671875 0.03125 Z "/>
</g>
</g>
</defs>
<g fill="rgb(90.588235%, 29.803922%, 23.529412%)" fill-opacity="1">
<use xlink:href="#glyph-0-0" x="30" y="22.96875"/>
<use xlink:href="#glyph-0-1" x="31" y="22.96875"/>
<use xlink:href="#glyph-0-2" x="33" y="22.96875"/>
<use xlink:href="#glyph-0-3" x="35" y="22.96875"/>
<use xlink:href="#glyph-0-4" x="36" y="22.96875"/>
<use xlink:href="#glyph-0-2" x="37" y="22.96875"/>
<use xlink:href="#glyph-0-3" x="39" y="22.96875"/>
</g>
<g fill="rgb(90.588235%, 29.803922%, 23.529412%)" fill-opacity="1">
<use xlink:href="#glyph-0-5" x="30" y="25.675781"/>
<use xlink:href="#glyph-0-1" x="32" y="25.675781"/>
<use xlink:href="#glyph-0-6" x="34" y="25.675781"/>
<use xlink:href="#glyph-0-7" x="35" y="25.675781"/>
<use xlink:href="#glyph-0-8" x="37" y="25.675781"/>
<use xlink:href="#glyph-0-4" x="38" y="25.675781"/>
<use xlink:href="#glyph-0-1" x="39" y="25.675781"/>
<use xlink:href="#glyph-0-2" x="41" y="25.675781"/>
</g>
</svg>
