<?xml version="1.0" encoding="UTF-8"?>
<svg xmlns="http://www.w3.org/2000/svg" xmlns:xlink="http://www.w3.org/1999/xlink" width="854" height="480" viewBox="0 0 854 480">
<defs>
<g>
<g id="glyph-0-0">
<path d="M 12.34375 0.5 C 9.082031 0.5 6.609375 -0.148438 4.921875 -1.453125 C 3.242188 -2.753906 2.40625 -4.453125 2.40625 -6.546875 C 2.40625 -7.546875 2.71875 -8.351562 3.34375 -8.96875 C 3.976562 -9.59375 4.863281 -9.90625 6 -9.90625 C 6.0625 -8.53125 6.328125 -7.234375 6.796875 -6.015625 C 7.265625 -4.804688 7.984375 -3.828125 8.953125 -3.078125 C 9.921875 -2.328125 11.1875 -1.953125 12.75 -1.953125 C 14.976562 -1.953125 16.726562 -2.492188 18 -3.578125 C 19.269531 -4.660156 19.90625 -6.21875 19.90625 -8.25 C 19.90625 -9.476562 19.660156 -10.519531 19.171875 -11.375 C 18.691406 -12.226562 17.890625 -13.019531 16.765625 -13.75 C 15.648438 -14.476562 14.113281 -15.242188 12.15625 -16.046875 C 9.050781 -17.316406 6.738281 -18.800781 5.21875 -20.5 C 3.707031 -22.195312 2.953125 -24.414062 2.953125 -27.15625 C 2.953125 -29.050781 3.425781 -30.671875 4.375 -32.015625 C 5.320312 -33.367188 6.617188 -34.40625 8.265625 -35.125 C 9.921875 -35.84375 11.800781 -36.203125 13.90625 -36.203125 C 16.863281 -36.203125 19.160156 -35.632812 20.796875 -34.5 C 22.429688 -33.363281 23.25 -32.0625 23.25 -30.59375 C 23.25 -29.53125 22.890625 -28.722656 22.171875 -28.171875 C 21.453125 -27.617188 20.492188 -27.34375 19.296875 -27.34375 C 19.296875 -28.382812 19.117188 -29.382812 18.765625 -30.34375 C 18.421875 -31.3125 17.835938 -32.113281 17.015625 -32.75 C 16.203125 -33.382812 15.097656 -33.703125 13.703125 -33.703125 C 11.765625 -33.703125 10.257812 -33.179688 9.1875 -32.140625 C 8.125 -31.109375 7.59375 -29.726562 7.59375 -28 C 7.59375 -26.664062 7.832031 -25.539062 8.3125 -24.625 C 8.800781 -23.707031 9.613281 -22.890625 10.75 -22.171875 C 11.882812 -21.453125 13.414062 -20.695312 15.34375 -19.90625 C 18.28125 -18.695312 20.566406 -17.3125 22.203125 -15.75 C 23.835938 -14.1875 24.65625 -12.117188 24.65625 -9.546875 C 24.65625 -6.378906 23.546875 -3.910156 21.328125 -2.140625 C 19.109375 -0.378906 16.113281 0.5 12.34375 0.5 Z "/>
</g>
<g id="glyph-0-1">
<path d="M 12 0.5 C 9.46875 0.5 7.625 -0.0703125 6.46875 -1.21875 C 5.320312 -2.375 4.75 -4.382812 4.75 -7.25 L 4.75 -23.953125 L 0.953125 -23.953125 L 0.953125 -25.953125 C 1.546875 -25.953125 2.207031 -26.078125 2.9375 -26.328125 C 3.675781 -26.578125 4.3125 -26.984375 4.84375 -27.546875 C 5.414062 -28.148438 5.882812 -28.882812 6.25 -29.75 C 6.613281 -30.613281 6.914062 -31.679688 7.15625 -32.953125 L 9.453125 -32.953125 L 9.453125 -26.796875 L 16 -26.796875 L 16 -23.953125 L 9.453125 -23.953125 L 9.453125 -7.09375 C 9.453125 -5.394531 9.800781 -4.144531 10.5 -3.34375 C 11.195312 -2.550781 12.113281 -2.15625 13.25 -2.15625 C 13.851562 -2.15625 14.40625 -2.1875 14.90625 -2.25 C 15.40625 -2.3125 15.921875 -2.394531 16.453125 -2.5 L 16.453125 -0.296875 C 16.015625 -0.0976562 15.363281 0.0820312 14.5 0.25 C 13.632812 0.414062 12.800781 0.5 12 0.5 Z "/>
</g>
<g id="glyph-0-2">
<path d="M 14.34375 0.5 C 10.71875 0.5 7.878906 -0.695312 5.828125 -3.09375 C 3.773438 -5.5 2.75 -8.867188 2.75 -13.203125 C 2.75 -17.867188 3.710938 -21.382812 5.640625 -23.75 C 7.578125 -26.113281 10.3125 -27.296875 13.84375 -27.296875 C 17.082031 -27.296875 19.625 -26.296875 21.46875 -24.296875 C 23.320312 -22.296875 24.25 -19.3125 24.25 -15.34375 L 24.25 -13.046875 L 7.59375 -13.046875 C 7.664062 -9.410156 8.328125 -6.769531 9.578125 -5.125 C 10.828125 -3.476562 12.648438 -2.65625 15.046875 -2.65625 C 16.785156 -2.65625 18.257812 -3.007812 19.46875 -3.71875 C 20.6875 -4.4375 21.597656 -5.25 22.203125 -6.15625 C 22.429688 -6.050781 22.644531 -5.847656 22.84375 -5.546875 C 23.050781 -5.242188 23.15625 -4.878906 23.15625 -4.453125 C 23.15625 -3.785156 22.835938 -3.066406 22.203125 -2.296875 C 21.566406 -1.535156 20.597656 -0.878906 19.296875 -0.328125 C 17.992188 0.222656 16.34375 0.5 14.34375 0.5 Z M 19.203125 -15.75 C 19.203125 -18.414062 18.789062 -20.554688 17.96875 -22.171875 C 17.15625 -23.785156 15.75 -24.59375 13.75 -24.59375 C 11.914062 -24.59375 10.488281 -23.832031 9.46875 -22.3125 C 8.457031 -20.800781 7.867188 -18.613281 7.703125 -15.75 Z "/>
</g>
<g id="glyph-0-3">
<path d="M 10.25 0.5 C 8.019531 0.5 6.171875 -0.148438 4.703125 -1.453125 C 3.234375 -2.753906 2.5 -4.769531 2.5 -7.5 C 2.5 -10.164062 3.441406 -12.128906 5.328125 -13.390625 C 7.210938 -14.660156 10.070312 -15.363281 13.90625 -15.5 L 18.046875 -15.65625 L 18.046875 -18.65625 C 18.046875 -19.851562 17.945312 -20.910156 17.75 -21.828125 C 17.550781 -22.742188 17.117188 -23.46875 16.453125 -24 C 15.785156 -24.53125 14.769531 -24.796875 13.40625 -24.796875 C 12.132812 -24.796875 11.164062 -24.5625 10.5 -24.09375 C 9.832031 -23.632812 9.390625 -22.992188 9.171875 -22.171875 C 8.953125 -21.359375 8.84375 -20.414062 8.84375 -19.34375 C 7.445312 -19.34375 6.390625 -19.582031 5.671875 -20.0625 C 4.953125 -20.550781 4.59375 -21.363281 4.59375 -22.5 C 4.59375 -23.664062 5 -24.597656 5.8125 -25.296875 C 6.632812 -25.992188 7.726562 -26.5 9.09375 -26.8125 C 10.46875 -27.132812 11.96875 -27.296875 13.59375 -27.296875 C 16.664062 -27.296875 18.957031 -26.644531 20.46875 -25.34375 C 21.988281 -24.050781 22.75 -21.820312 22.75 -18.65625 L 22.75 -5.703125 C 22.75 -4.296875 22.984375 -3.34375 23.453125 -2.84375 C 23.921875 -2.34375 24.71875 -2.09375 25.84375 -2.09375 L 26 -2.09375 L 26 0 L 19.25 0 L 18.453125 -4.296875 L 18.046875 -4.296875 C 17.347656 -3.367188 16.664062 -2.546875 16 -1.828125 C 15.332031 -1.109375 14.554688 -0.539062 13.671875 -0.125 C 12.785156 0.289062 11.644531 0.5 10.25 0.5 Z M 11.40625 -2.59375 C 13.4375 -2.59375 15.050781 -3.21875 16.25 -4.46875 C 17.445312 -5.71875 18.046875 -7.410156 18.046875 -9.546875 L 18.046875 -13.59375 L 14.84375 -13.453125 C 12.007812 -13.316406 10.050781 -12.738281 8.96875 -11.71875 C 7.882812 -10.707031 7.34375 -9.21875 7.34375 -7.25 C 7.34375 -4.144531 8.695312 -2.59375 11.40625 -2.59375 Z "/>
</g>
<g id="glyph-0-4">
<path d="M 12.953125 0.5 C 9.648438 0.5 7.125 -0.609375 5.375 -2.828125 C 3.625 -5.046875 2.75 -8.550781 2.75 -13.34375 C 2.75 -18.175781 3.625 -21.707031 5.375 -23.9375 C 7.125 -26.175781 9.648438 -27.296875 12.953125 -27.296875 C 14.878906 -27.296875 16.453125 -26.882812 17.671875 -26.0625 C 18.890625 -25.25 19.863281 -24.195312 20.59375 -22.90625 L 20.90625 -22.90625 C 20.800781 -23.738281 20.722656 -24.660156 20.671875 -25.671875 C 20.617188 -26.691406 20.59375 -27.601562 20.59375 -28.40625 L 20.59375 -32.5 C 20.59375 -33.96875 20.1875 -34.898438 19.375 -35.296875 C 18.5625 -35.703125 17.601562 -35.90625 16.5 -35.90625 L 16.09375 -35.90625 L 16.09375 -38 L 25.296875 -38 L 25.296875 -5.5 C 25.296875 -4.03125 25.703125 -3.09375 26.515625 -2.6875 C 27.335938 -2.289062 28.300781 -2.09375 29.40625 -2.09375 L 29.796875 -2.09375 L 29.796875 0 L 21.34375 0 L 20.796875 -4.5 L 20.59375 -4.5 C 19.863281 -2.96875 18.898438 -1.75 17.703125 -0.84375 C 16.503906 0.0507812 14.921875 0.5 12.953125 0.5 Z M 13.796875 -2.703125 C 16.398438 -2.703125 18.179688 -3.578125 19.140625 -5.328125 C 20.109375 -7.078125 20.59375 -9.75 20.59375 -13.34375 C 20.59375 -16.8125 20.109375 -19.46875 19.140625 -21.3125 C 18.179688 -23.164062 16.382812 -24.09375 13.75 -24.09375 C 11.550781 -24.09375 9.972656 -23.164062 9.015625 -21.3125 C 8.066406 -19.46875 7.59375 -16.796875 7.59375 -13.296875 C 7.59375 -9.765625 8.066406 -7.113281 9.015625 -5.34375 C 9.972656 -3.582031 11.566406 -2.703125 13.796875 -2.703125 Z "/>
</g>
<g id="glyph-0-5">
<path d="M 1.90625 9.65625 C 4.164062 9.65625 6.019531 9.21875 7.46875 8.34375 C 8.925781 7.476562 10.101562 6.300781 11 4.8125 C 11.894531 3.332031 12.613281 1.660156 13.15625 -0.203125 L 3.90625 -22.046875 C 3.46875 -23.078125 3.003906 -23.773438 2.515625 -24.140625 C 2.035156 -24.515625 1.3125 -24.703125 0.34375 -24.703125 L 0.203125 -24.703125 L 0.203125 -26.796875 L 12.203125 -26.796875 L 12.203125 -24.703125 L 12.046875 -24.703125 C 10.046875 -24.703125 9.046875 -23.898438 9.046875 -22.296875 C 9.046875 -21.734375 9.179688 -21.117188 9.453125 -20.453125 L 13.09375 -11.546875 C 13.425781 -10.785156 13.75 -9.945312 14.0625 -9.03125 C 14.382812 -8.113281 14.675781 -7.238281 14.9375 -6.40625 C 15.207031 -5.570312 15.394531 -4.867188 15.5 -4.296875 C 15.726562 -5.265625 16.035156 -6.265625 16.421875 -7.296875 C 16.804688 -8.328125 17.164062 -9.34375 17.5 -10.34375 L 20.84375 -20.09375 C 21.144531 -20.894531 21.296875 -21.613281 21.296875 -22.25 C 21.296875 -23.882812 20.195312 -24.703125 18 -24.703125 L 17.84375 -24.703125 L 17.84375 -26.796875 L 28.25 -26.796875 L 28.25 -24.703125 L 28.09375 -24.703125 C 27.132812 -24.703125 26.40625 -24.453125 25.90625 -23.953125 C 25.40625 -23.453125 24.867188 -22.398438 24.296875 -20.796875 L 16.703125 0.203125 C 15.835938 2.628906 15.003906 4.609375 14.203125 6.140625 C 13.398438 7.679688 12.503906 8.875 11.515625 9.71875 C 10.535156 10.570312 9.3125 11.164062 7.84375 11.5 C 6.382812 11.832031 4.550781 12 2.34375 12 L 1.90625 12 Z "/>
</g>
<g id="glyph-0-6">
<path d="M 1.25 -11.75 L 1.25 -15.5 L 14.25 -15.5 L 14.25 -11.75 Z "/>
</g>
<g id="glyph-0-7">
</g>
<g id="glyph-0-8">
<path d="M 18.046875 0.5 C 14.742188 0.5 11.957031 -0.265625 9.6875 -1.796875 C 7.425781 -3.328125 5.71875 -5.46875 4.5625 -8.21875 C 3.414062 -10.96875 2.84375 -14.195312 2.84375 -17.90625 C 2.84375 -21.5 3.453125 -24.671875 4.671875 -27.421875 C 5.890625 -30.171875 7.691406 -32.320312 10.078125 -33.875 C 12.460938 -35.425781 15.40625 -36.203125 18.90625 -36.203125 C 22.300781 -36.203125 24.832031 -35.664062 26.5 -34.59375 C 28.164062 -33.53125 29 -32.195312 29 -30.59375 C 29 -29.53125 28.582031 -28.679688 27.75 -28.046875 C 26.914062 -27.410156 25.882812 -27.09375 24.65625 -27.09375 C 24.65625 -28.132812 24.46875 -29.144531 24.09375 -30.125 C 23.726562 -31.101562 23.117188 -31.914062 22.265625 -32.5625 C 21.421875 -33.21875 20.265625 -33.546875 18.796875 -33.546875 C 15.035156 -33.546875 12.363281 -32.1875 10.78125 -29.46875 C 9.195312 -26.757812 8.40625 -22.90625 8.40625 -17.90625 C 8.40625 -14.9375 8.757812 -12.304688 9.46875 -10.015625 C 10.1875 -7.734375 11.3125 -5.957031 12.84375 -4.6875 C 14.382812 -3.425781 16.367188 -2.796875 18.796875 -2.796875 C 21.234375 -2.796875 23.140625 -3.21875 24.515625 -4.0625 C 25.898438 -4.914062 27.007812 -5.910156 27.84375 -7.046875 C 28.113281 -6.878906 28.335938 -6.632812 28.515625 -6.3125 C 28.703125 -6 28.796875 -5.59375 28.796875 -5.09375 C 28.796875 -4.257812 28.410156 -3.410156 27.640625 -2.546875 C 26.878906 -1.679688 25.707031 -0.957031 24.125 -0.375 C 22.539062 0.207031 20.515625 0.5 18.046875 0.5 Z "/>
</g>
<g id="glyph-0-9">
<path d="M 13.65625 0.5 C 11.019531 0.5 8.984375 -0.273438 7.546875 -1.828125 C 6.117188 -3.378906 5.40625 -5.867188 5.40625 -9.296875 L 5.40625 -21.296875 C 5.40625 -22.765625 4.992188 -23.695312 4.171875 -24.09375 C 3.359375 -24.5 2.398438 -24.703125 1.296875 -24.703125 L 1.15625 -24.703125 L 1.15625 -26.796875 L 10.09375 -26.796875 L 10.09375 -9.546875 C 10.09375 -7.378906 10.457031 -5.695312 11.1875 -4.5 C 11.925781 -3.300781 13.3125 -2.703125 15.34375 -2.703125 C 17.550781 -2.703125 19.15625 -3.441406 20.15625 -4.921875 C 21.15625 -6.410156 21.65625 -8.367188 21.65625 -10.796875 L 21.65625 -21.09375 C 21.65625 -22.664062 21.253906 -23.660156 20.453125 -24.078125 C 19.648438 -24.492188 18.679688 -24.703125 17.546875 -24.703125 L 17.40625 -24.703125 L 17.40625 -26.796875 L 26.34375 -26.796875 L 26.34375 -5.453125 C 26.34375 -3.984375 26.75 -3.054688 27.5625 -2.671875 C 28.382812 -2.285156 29.347656 -2.09375 30.453125 -2.09375 L 30.59375 -2.09375 L 30.59375 0 L 22.65625 0 L 22 -4.046875 L 21.75 -4.046875 C 20.71875 -2.179688 19.515625 -0.957031 18.140625 -0.375 C 16.773438 0.207031 15.28125 0.5 13.65625 0.5 Z "/>
</g>
<g id="glyph-0-10">
<path d="M 1.65625 0 L 1.65625 -2.09375 L 1.796875 -2.09375 C 2.929688 -2.09375 3.898438 -2.300781 4.703125 -2.71875 C 5.503906 -3.132812 5.90625 -4.128906 5.90625 -5.703125 L 5.90625 -21.296875 C 5.90625 -22.765625 5.492188 -23.695312 4.671875 -24.09375 C 3.859375 -24.5 2.898438 -24.703125 1.796875 -24.703125 L 1.65625 -24.703125 L 1.65625 -26.796875 L 9.34375 -26.796875 L 10.296875 -21.84375 L 10.546875 -21.84375 C 10.984375 -22.84375 11.453125 -23.757812 11.953125 -24.59375 C 12.453125 -25.425781 13.117188 -26.082031 13.953125 -26.5625 C 14.785156 -27.050781 15.9375 -27.296875 17.40625 -27.296875 C 19.238281 -27.296875 20.59375 -26.976562 21.46875 -26.34375 C 22.351562 -25.71875 22.796875 -24.820312 22.796875 -23.65625 C 22.796875 -22.613281 22.4375 -21.757812 21.71875 -21.09375 C 21.007812 -20.425781 19.820312 -20.09375 18.15625 -20.09375 C 18.15625 -21.46875 17.953125 -22.460938 17.546875 -23.078125 C 17.148438 -23.691406 16.46875 -24 15.5 -24 C 14.5625 -24 13.773438 -23.628906 13.140625 -22.890625 C 12.515625 -22.160156 12.015625 -21.226562 11.640625 -20.09375 C 11.273438 -18.96875 11.007812 -17.796875 10.84375 -16.578125 C 10.675781 -15.359375 10.59375 -14.265625 10.59375 -13.296875 L 10.59375 -5.453125 C 10.59375 -3.984375 11 -3.054688 11.8125 -2.671875 C 12.632812 -2.285156 13.597656 -2.09375 14.703125 -2.09375 L 16.09375 -2.09375 L 16.09375 0 Z "/>
</g>
<g id="glyph-0-11">
<path d="M 1.40625 0 L 1.40625 -2.09375 L 1.796875 -2.09375 C 2.929688 -2.09375 3.898438 -2.300781 4.703125 -2.71875 C 5.503906 -3.132812 5.90625 -4.128906 5.90625 -5.703125 L 5.90625 -21.296875 C 5.90625 -22.765625 5.507812 -23.695312 4.71875 -24.09375 C 3.9375 -24.5 3 -24.703125 1.90625 -24.703125 L 1.65625 -24.703125 L 1.65625 -26.796875 L 9.75 -26.796875 L 10.40625 -22.75 L 10.65625 -22.75 C 11.6875 -24.613281 12.84375 -25.835938 14.125 -26.421875 C 15.40625 -27.003906 16.847656 -27.296875 18.453125 -27.296875 C 21.085938 -27.296875 23.144531 -26.519531 24.625 -24.96875 C 26.101562 -23.425781 26.84375 -20.9375 26.84375 -17.5 L 26.84375 -5.703125 C 26.84375 -4.128906 27.1875 -3.132812 27.875 -2.71875 C 28.5625 -2.300781 29.46875 -2.09375 30.59375 -2.09375 L 30.84375 -2.09375 L 30.84375 0 L 22.15625 0 L 22.15625 -17.25 C 22.15625 -19.414062 21.742188 -21.097656 20.921875 -22.296875 C 20.109375 -23.492188 18.6875 -24.09375 16.65625 -24.09375 C 15.15625 -24.09375 13.960938 -23.71875 13.078125 -22.96875 C 12.191406 -22.21875 11.554688 -21.226562 11.171875 -20 C 10.785156 -18.769531 10.59375 -17.4375 10.59375 -16 L 10.59375 -5.453125 C 10.59375 -3.984375 10.984375 -3.054688 11.765625 -2.671875 C 12.554688 -2.285156 13.5 -2.09375 14.59375 -2.09375 L 14.84375 -2.09375 L 14.84375 0 Z "/>
</g>
<g id="glyph-0-12">
<path d="M 0 0 L 0 -2.09375 L 0.953125 -2.09375 C 1.921875 -2.09375 2.644531 -2.34375 3.125 -2.84375 C 3.601562 -3.34375 4.144531 -4.394531 4.75 -6 L 15.84375 -35.703125 L 19.75 -35.703125 L 31.046875 -4.75 C 31.410156 -3.71875 31.851562 -3.015625 32.375 -2.640625 C 32.894531 -2.273438 33.632812 -2.09375 34.59375 -2.09375 L 35.25 -2.09375 L 35.25 0 L 21.5 0 L 21.5 -2.09375 L 22.65625 -2.09375 C 24.65625 -2.09375 25.65625 -2.894531 25.65625 -4.5 C 25.65625 -4.769531 25.617188 -5.050781 25.546875 -5.34375 C 25.484375 -5.644531 25.382812 -5.976562 25.25 -6.34375 L 23.25 -11.953125 L 10.09375 -11.953125 L 8.203125 -6.703125 C 7.898438 -5.898438 7.75 -5.179688 7.75 -4.546875 C 7.75 -2.910156 8.847656 -2.09375 11.046875 -2.09375 L 12.203125 -2.09375 L 12.203125 0 Z M 11.046875 -14.453125 L 22.34375 -14.453125 L 19.25 -23.203125 C 18.71875 -24.671875 18.234375 -26.050781 17.796875 -27.34375 C 17.367188 -28.644531 17.019531 -29.894531 16.75 -31.09375 C 16.519531 -29.894531 16.21875 -28.742188 15.84375 -27.640625 C 15.476562 -26.546875 15.015625 -25.21875 14.453125 -23.65625 Z "/>
</g>
<g id="glyph-0-13">
<path d="M 14.15625 0.5 C 11.945312 0.5 9.984375 0.0351562 8.265625 -0.890625 C 6.554688 -1.828125 5.207031 -3.300781 4.21875 -5.3125 C 3.238281 -7.332031 2.75 -9.976562 2.75 -13.25 C 2.75 -16.8125 3.238281 -19.617188 4.21875 -21.671875 C 5.207031 -23.722656 6.539062 -25.171875 8.21875 -26.015625 C 9.90625 -26.867188 11.800781 -27.296875 13.90625 -27.296875 C 15.300781 -27.296875 16.664062 -27.113281 18 -26.75 C 19.332031 -26.382812 20.429688 -25.828125 21.296875 -25.078125 C 22.160156 -24.328125 22.59375 -23.367188 22.59375 -22.203125 C 22.59375 -21.066406 22.21875 -20.253906 21.46875 -19.765625 C 20.71875 -19.285156 19.613281 -19.046875 18.15625 -19.046875 C 18.15625 -20.617188 17.863281 -21.96875 17.28125 -23.09375 C 16.695312 -24.226562 15.570312 -24.796875 13.90625 -24.796875 C 12.632812 -24.796875 11.523438 -24.460938 10.578125 -23.796875 C 9.628906 -23.128906 8.894531 -21.960938 8.375 -20.296875 C 7.851562 -18.628906 7.59375 -16.296875 7.59375 -13.296875 C 7.59375 -9.765625 8.1875 -7.125 9.375 -5.375 C 10.5625 -3.625 12.488281 -2.75 15.15625 -2.75 C 16.71875 -2.75 18.070312 -3.070312 19.21875 -3.71875 C 20.375 -4.375 21.234375 -5.21875 21.796875 -6.25 C 22.367188 -5.78125 22.65625 -5.128906 22.65625 -4.296875 C 22.65625 -3.535156 22.335938 -2.785156 21.703125 -2.046875 C 21.066406 -1.316406 20.125 -0.707031 18.875 -0.21875 C 17.625 0.257812 16.050781 0.5 14.15625 0.5 Z "/>
</g>
<g id="glyph-0-14">
<path d="M 0.90625 0 L 0.90625 -2.09375 L 1.296875 -2.09375 C 2.429688 -2.09375 3.398438 -2.300781 4.203125 -2.71875 C 5.003906 -3.132812 5.40625 -4.128906 5.40625 -5.703125 L 5.40625 -32.5 C 5.40625 -33.96875 4.992188 -34.898438 4.171875 -35.296875 C 3.359375 -35.703125 2.398438 -35.90625 1.296875 -35.90625 L 0.90625 -35.90625 L 0.90625 -38 L 10.09375 -38 L 10.09375 -27 C 10.09375 -26.394531 10.078125 -25.769531 10.046875 -25.125 C 10.015625 -24.476562 9.984375 -23.921875 9.953125 -23.453125 C 9.921875 -22.984375 9.90625 -22.75 9.90625 -22.75 L 10.15625 -22.75 C 11.6875 -25.78125 14.132812 -27.296875 17.5 -27.296875 C 20.363281 -27.296875 22.550781 -26.519531 24.0625 -24.96875 C 25.582031 -23.425781 26.34375 -20.9375 26.34375 -17.5 L 26.34375 -5.703125 C 26.34375 -4.128906 26.703125 -3.132812 27.421875 -2.71875 C 28.140625 -2.300781 29.066406 -2.09375 30.203125 -2.09375 L 30.34375 -2.09375 L 30.34375 0 L 21.65625 0 L 21.65625 -17.25 C 21.65625 -19.414062 21.242188 -21.097656 20.421875 -22.296875 C 19.609375 -23.492188 18.1875 -24.09375 16.15625 -24.09375 C 14.082031 -24.09375 12.550781 -23.359375 11.5625 -21.890625 C 10.582031 -20.429688 10.09375 -18.46875 10.09375 -16 L 10.09375 -5.453125 C 10.09375 -3.984375 10.5 -3.054688 11.3125 -2.671875 C 12.132812 -2.285156 13.097656 -2.09375 14.203125 -2.09375 L 14.34375 -2.09375 L 14.34375 0 Z "/>
</g>
<g id="glyph-0-15">
<path d="M 8.046875 -31.796875 C 7.242188 -31.796875 6.566406 -32.03125 6.015625 -32.5 C 5.472656 -32.96875 5.203125 -33.769531 5.203125 -34.90625 C 5.203125 -36.070312 5.472656 -36.878906 6.015625 -37.328125 C 6.566406 -37.773438 7.242188 -38 8.046875 -38 C 8.816406 -38 9.484375 -37.773438 10.046875 -37.328125 C 10.617188 -36.878906 10.90625 -36.070312 10.90625 -34.90625 C 10.90625 -33.769531 10.617188 -32.96875 10.046875 -32.5 C 9.484375 -32.03125 8.816406 -31.796875 8.046875 -31.796875 Z M 1.15625 0 L 1.15625 -2.09375 L 1.796875 -2.09375 C 2.898438 -2.09375 3.859375 -2.285156 4.671875 -2.671875 C 5.492188 -3.054688 5.90625 -3.984375 5.90625 -5.453125 L 5.90625 -21.296875 C 5.90625 -22.765625 5.492188 -23.695312 4.671875 -24.09375 C 3.859375 -24.5 2.898438 -24.703125 1.796875 -24.703125 L 1.65625 -24.703125 L 1.65625 -26.796875 L 10.59375 -26.796875 L 10.59375 -5.703125 C 10.59375 -4.128906 10.992188 -3.132812 11.796875 -2.71875 C 12.597656 -2.300781 13.566406 -2.09375 14.703125 -2.09375 L 15.34375 -2.09375 L 15.34375 0 Z "/>
</g>
<g id="glyph-0-16">
<path d="M 3.90625 -22.046875 C 3.53125 -23.117188 3.082031 -23.828125 2.5625 -24.171875 C 2.050781 -24.523438 1.265625 -24.703125 0.203125 -24.703125 L 0.203125 -26.796875 L 12.703125 -26.796875 L 12.703125 -24.703125 L 12.046875 -24.703125 C 10.046875 -24.703125 9.046875 -23.898438 9.046875 -22.296875 C 9.046875 -22.035156 9.078125 -21.753906 9.140625 -21.453125 C 9.210938 -21.148438 9.316406 -20.816406 9.453125 -20.453125 L 12.84375 -11 C 13.3125 -9.769531 13.757812 -8.425781 14.1875 -6.96875 C 14.625 -5.519531 14.960938 -4.363281 15.203125 -3.5 C 15.367188 -4.195312 15.71875 -5.210938 16.25 -6.546875 C 16.78125 -7.878906 17.265625 -9.144531 17.703125 -10.34375 L 21.296875 -20.09375 C 21.597656 -20.894531 21.75 -21.613281 21.75 -22.25 C 21.75 -23.882812 20.648438 -24.703125 18.453125 -24.703125 L 18.09375 -24.703125 L 18.09375 -26.796875 L 28.796875 -26.796875 L 28.796875 -24.703125 L 28.203125 -24.703125 C 27.234375 -24.703125 26.503906 -24.453125 26.015625 -23.953125 C 25.535156 -23.453125 25 -22.398438 24.40625 -20.796875 L 16.5 0 L 11.953125 0 Z "/>
</g>
</g>
</defs>
<g fill="rgb(100%, 27.843137%, 34.117647%)" fill-opacity="1">
<use xlink:href="#glyph-0-0" x="30" y="73.450195"/>
<use xlink:href="#glyph-0-1" x="57" y="73.450195"/>
<use xlink:href="#glyph-0-2" x="75" y="73.450195"/>
<use xlink:href="#glyph-0-3" x="102" y="73.450195"/>
<use xlink:href="#glyph-0-4" x="130" y="73.450195"/>
<use xlink:href="#glyph-0-5" x="161" y="73.450195"/>
<use xlink:href="#glyph-0-6" x="189" y="73.450195"/>
<use xlink:href="#glyph-0-0" x="205" y="73.450195"/>
<use xlink:href="#glyph-0-1" x="232" y="73.450195"/>
<use xlink:href="#glyph-0-3" x="250" y="73.450195"/>
<use xlink:href="#glyph-0-1" x="278" y="73.450195"/>
<use xlink:href="#glyph-0-2" x="296" y="73.450195"/>
<use xlink:href="#glyph-0-7" x="323" y="73.450195"/>
<use xlink:href="#glyph-0-8" x="336" y="73.450195"/>
<use xlink:href="#glyph-0-9" x="367" y="73.450195"/>
<use xlink:href="#glyph-0-10" x="399" y="73.450195"/>
<use xlink:href="#glyph-0-10" x="423" y="73.450195"/>
<use xlink:href="#glyph-0-2" x="447" y="73.450195"/>
<use xlink:href="#glyph-0-11" x="474" y="73.450195"/>
<use xlink:href="#glyph-0-1" x="506" y="73.450195"/>
<use xlink:href="#glyph-0-7" x="524" y="73.450195"/>
<use xlink:href="#glyph-0-12" x="537" y="73.450195"/>
<use xlink:href="#glyph-0-13" x="571" y="73.450195"/>
<use xlink:href="#glyph-0-14" x="596" y="73.450195"/>
<use xlink:href="#glyph-0-15" x="628" y="73.450195"/>
<use xlink:href="#glyph-0-2" x="644" y="73.450195"/>
<use xlink:href="#glyph-0-16" x="671" y="73.450195"/>
<use xlink:href="#glyph-0-2" x="700" y="73.450195"/>
<use xlink:href="#glyph-0-4" x="727" y="73.450195"/>
</g>
</svg>
