<?xml version="1.0" encoding="UTF-8"?>
<svg xmlns="http://www.w3.org/2000/svg" xmlns:xlink="http://www.w3.org/1999/xlink" width="854" height="480" viewBox="0 0 854 480">
<defs>
<g>
<g id="glyph-0-0">
<path d="M 0.140625 0 L 0.140625 -0.265625 L 0.34375 -0.265625 C 0.414062 -0.265625 0.476562 -0.28125 0.53125 -0.3125 C 0.582031 -0.34375 0.609375 -0.425781 0.609375 -0.5625 L 0.609375 -2.984375 C 0.609375 -3.117188 0.582031 -3.207031 0.53125 -3.25 C 0.476562 -3.289062 0.414062 -3.3125 0.34375 -3.3125 L 0.140625 -3.3125 L 0.140625 -3.5625 L 2.921875 -3.5625 L 2.9375 -2.65625 L 2.578125 -2.65625 L 2.5625 -2.890625 C 2.550781 -3.003906 2.519531 -3.09375 2.46875 -3.15625 C 2.414062 -3.226562 2.335938 -3.265625 2.234375 -3.265625 L 1.40625 -3.265625 L 1.40625 -2.015625 L 2.578125 -2.015625 L 2.578125 -1.71875 L 1.40625 -1.71875 L 1.40625 -0.3125 L 2.40625 -0.3125 C 2.5 -0.3125 2.566406 -0.34375 2.609375 -0.40625 C 2.660156 -0.476562 2.695312 -0.570312 2.71875 -0.6875 L 2.765625 -0.921875 L 3.109375 -0.921875 L 3.0625 0 Z "/>
</g>
</g>
</defs>
<g fill="rgb(94.117647%, 94.117647%, 94.117647%)" fill-opacity="1">
<use xlink:href="#glyph-0-0" x="30" y="25.344727"/>
</g>
</svg>
