<?xml version="1.0" encoding="UTF-8"?>
<svg xmlns="http://www.w3.org/2000/svg" xmlns:xlink="http://www.w3.org/1999/xlink" width="854" height="480" viewBox="0 0 854 480">
<defs>
<g>
<g id="glyph-0-0">
<path d="M 13.03125 0.53125 C 9.582031 0.53125 6.96875 -0.15625 5.1875 -1.53125 C 3.414062 -2.90625 2.53125 -4.703125 2.53125 -6.921875 C 2.53125 -7.972656 2.863281 -8.820312 3.53125 -9.46875 C 4.207031 -10.125 5.140625 -10.453125 6.328125 -10.453125 C 6.398438 -9.003906 6.679688 -7.640625 7.171875 -6.359375 C 7.671875 -5.078125 8.429688 -4.039062 9.453125 -3.25 C 10.472656 -2.457031 11.804688 -2.0625 13.453125 -2.0625 C 15.816406 -2.0625 17.664062 -2.628906 19 -3.765625 C 20.332031 -4.910156 21 -6.554688 21 -8.703125 C 21 -10.003906 20.742188 -11.101562 20.234375 -12 C 19.722656 -12.90625 18.878906 -13.742188 17.703125 -14.515625 C 16.523438 -15.285156 14.898438 -16.09375 12.828125 -16.9375 C 9.554688 -18.28125 7.117188 -19.847656 5.515625 -21.640625 C 3.910156 -23.429688 3.109375 -25.769531 3.109375 -28.65625 C 3.109375 -30.664062 3.609375 -32.378906 4.609375 -33.796875 C 5.617188 -35.222656 6.992188 -36.316406 8.734375 -37.078125 C 10.472656 -37.835938 12.453125 -38.21875 14.671875 -38.21875 C 17.804688 -38.21875 20.234375 -37.617188 21.953125 -36.421875 C 23.679688 -35.222656 24.546875 -33.847656 24.546875 -32.296875 C 24.546875 -31.171875 24.164062 -30.316406 23.40625 -29.734375 C 22.65625 -29.160156 21.644531 -28.875 20.375 -28.875 C 20.375 -29.957031 20.1875 -31.007812 19.8125 -32.03125 C 19.445312 -33.050781 18.832031 -33.894531 17.96875 -34.5625 C 17.101562 -35.238281 15.9375 -35.578125 14.46875 -35.578125 C 12.425781 -35.578125 10.835938 -35.03125 9.703125 -33.9375 C 8.578125 -32.84375 8.015625 -31.382812 8.015625 -29.5625 C 8.015625 -28.15625 8.269531 -26.96875 8.78125 -26 C 9.289062 -25.03125 10.144531 -24.164062 11.34375 -23.40625 C 12.539062 -22.65625 14.160156 -21.851562 16.203125 -21 C 19.296875 -19.738281 21.703125 -18.28125 23.421875 -16.625 C 25.148438 -14.96875 26.015625 -12.785156 26.015625 -10.078125 C 26.015625 -6.734375 24.84375 -4.128906 22.5 -2.265625 C 20.164062 -0.398438 17.007812 0.53125 13.03125 0.53125 Z "/>
</g>
<g id="glyph-0-1">
<path d="M 12.671875 0.53125 C 9.992188 0.53125 8.046875 -0.0703125 6.828125 -1.28125 C 5.617188 -2.5 5.015625 -4.625 5.015625 -7.65625 L 5.015625 -25.28125 L 1 -25.28125 L 1 -27.390625 C 1.632812 -27.390625 2.335938 -27.519531 3.109375 -27.78125 C 3.890625 -28.050781 4.5625 -28.484375 5.125 -29.078125 C 5.71875 -29.710938 6.207031 -30.488281 6.59375 -31.40625 C 6.976562 -32.320312 7.296875 -33.445312 7.546875 -34.78125 L 9.96875 -34.78125 L 9.96875 -28.296875 L 16.890625 -28.296875 L 16.890625 -25.28125 L 9.96875 -25.28125 L 9.96875 -7.5 C 9.96875 -5.695312 10.335938 -4.375 11.078125 -3.53125 C 11.816406 -2.6875 12.785156 -2.265625 13.984375 -2.265625 C 14.617188 -2.265625 15.195312 -2.300781 15.71875 -2.375 C 16.25 -2.445312 16.796875 -2.535156 17.359375 -2.640625 L 17.359375 -0.3125 C 16.898438 -0.101562 16.210938 0.0859375 15.296875 0.265625 C 14.390625 0.441406 13.515625 0.53125 12.671875 0.53125 Z "/>
</g>
<g id="glyph-0-2">
<path d="M 15.140625 0.53125 C 11.304688 0.53125 8.304688 -0.734375 6.140625 -3.265625 C 3.984375 -5.804688 2.90625 -9.363281 2.90625 -13.9375 C 2.90625 -18.863281 3.925781 -22.570312 5.96875 -25.0625 C 8.007812 -27.5625 10.894531 -28.8125 14.625 -28.8125 C 18.03125 -28.8125 20.707031 -27.753906 22.65625 -25.640625 C 24.613281 -23.535156 25.59375 -20.390625 25.59375 -16.203125 L 25.59375 -13.78125 L 8.015625 -13.78125 C 8.085938 -9.9375 8.785156 -7.144531 10.109375 -5.40625 C 11.429688 -3.664062 13.359375 -2.796875 15.890625 -2.796875 C 17.710938 -2.796875 19.265625 -3.171875 20.546875 -3.921875 C 21.835938 -4.679688 22.800781 -5.535156 23.4375 -6.484375 C 23.675781 -6.378906 23.898438 -6.171875 24.109375 -5.859375 C 24.328125 -5.546875 24.4375 -5.160156 24.4375 -4.703125 C 24.4375 -3.992188 24.101562 -3.234375 23.4375 -2.421875 C 22.769531 -1.617188 21.75 -0.925781 20.375 -0.34375 C 19 0.238281 17.253906 0.53125 15.140625 0.53125 Z M 20.265625 -16.625 C 20.265625 -19.4375 19.832031 -21.695312 18.96875 -23.40625 C 18.113281 -25.113281 16.628906 -25.96875 14.515625 -25.96875 C 12.578125 -25.96875 11.070312 -25.164062 10 -23.5625 C 8.925781 -21.96875 8.300781 -19.65625 8.125 -16.625 Z "/>
</g>
<g id="glyph-0-3">
<path d="M 10.8125 0.53125 C 8.457031 0.53125 6.503906 -0.15625 4.953125 -1.53125 C 3.410156 -2.90625 2.640625 -5.035156 2.640625 -7.921875 C 2.640625 -10.734375 3.632812 -12.804688 5.625 -14.140625 C 7.613281 -15.484375 10.628906 -16.222656 14.671875 -16.359375 L 19.046875 -16.515625 L 19.046875 -19.6875 C 19.046875 -20.957031 18.941406 -22.070312 18.734375 -23.03125 C 18.523438 -24 18.066406 -24.765625 17.359375 -25.328125 C 16.660156 -25.890625 15.585938 -26.171875 14.140625 -26.171875 C 12.804688 -26.171875 11.785156 -25.925781 11.078125 -25.4375 C 10.378906 -24.945312 9.914062 -24.269531 9.6875 -23.40625 C 9.457031 -22.539062 9.34375 -21.546875 9.34375 -20.421875 C 7.863281 -20.421875 6.742188 -20.675781 5.984375 -21.1875 C 5.234375 -21.695312 4.859375 -22.550781 4.859375 -23.75 C 4.859375 -24.976562 5.285156 -25.960938 6.140625 -26.703125 C 7.003906 -27.441406 8.15625 -27.976562 9.59375 -28.3125 C 11.039062 -28.644531 12.628906 -28.8125 14.359375 -28.8125 C 17.597656 -28.8125 20.015625 -28.125 21.609375 -26.75 C 23.210938 -25.382812 24.015625 -23.03125 24.015625 -19.6875 L 24.015625 -6.015625 C 24.015625 -4.535156 24.257812 -3.53125 24.75 -3 C 25.25 -2.476562 26.09375 -2.21875 27.28125 -2.21875 L 27.453125 -2.21875 L 27.453125 0 L 20.328125 0 L 19.46875 -4.546875 L 19.046875 -4.546875 C 18.316406 -3.554688 17.597656 -2.679688 16.890625 -1.921875 C 16.179688 -1.171875 15.359375 -0.570312 14.421875 -0.125 C 13.492188 0.3125 12.289062 0.53125 10.8125 0.53125 Z M 12.03125 -2.75 C 14.175781 -2.75 15.878906 -3.40625 17.140625 -4.71875 C 18.410156 -6.039062 19.046875 -7.828125 19.046875 -10.078125 L 19.046875 -14.359375 L 15.671875 -14.203125 C 12.679688 -14.054688 10.613281 -13.445312 9.46875 -12.375 C 8.332031 -11.300781 7.765625 -9.726562 7.765625 -7.65625 C 7.765625 -4.382812 9.1875 -2.75 12.03125 -2.75 Z "/>
</g>
<g id="glyph-0-4">
<path d="M 13.671875 0.53125 C 10.179688 0.53125 7.515625 -0.632812 5.671875 -2.96875 C 3.828125 -5.3125 2.90625 -9.019531 2.90625 -14.09375 C 2.90625 -19.195312 3.828125 -22.925781 5.671875 -25.28125 C 7.515625 -27.632812 10.179688 -28.8125 13.671875 -28.8125 C 15.710938 -28.8125 17.375 -28.378906 18.65625 -27.515625 C 19.9375 -26.660156 20.96875 -25.546875 21.75 -24.171875 L 22.0625 -24.171875 C 21.957031 -25.054688 21.878906 -26.035156 21.828125 -27.109375 C 21.773438 -28.179688 21.75 -29.140625 21.75 -29.984375 L 21.75 -34.3125 C 21.75 -35.851562 21.316406 -36.832031 20.453125 -37.25 C 19.585938 -37.675781 18.578125 -37.890625 17.421875 -37.890625 L 17 -37.890625 L 17 -40.109375 L 26.703125 -40.109375 L 26.703125 -5.8125 C 26.703125 -4.257812 27.132812 -3.269531 28 -2.84375 C 28.863281 -2.425781 29.875 -2.21875 31.03125 -2.21875 L 31.453125 -2.21875 L 31.453125 0 L 22.53125 0 L 21.953125 -4.75 L 21.75 -4.75 C 20.96875 -3.132812 19.941406 -1.847656 18.671875 -0.890625 C 17.410156 0.0546875 15.742188 0.53125 13.671875 0.53125 Z M 14.5625 -2.84375 C 17.3125 -2.84375 19.195312 -3.765625 20.21875 -5.609375 C 21.238281 -7.460938 21.75 -10.289062 21.75 -14.09375 C 21.75 -17.75 21.238281 -20.550781 20.21875 -22.5 C 19.195312 -24.457031 17.296875 -25.4375 14.515625 -25.4375 C 12.191406 -25.4375 10.523438 -24.457031 9.515625 -22.5 C 8.515625 -20.550781 8.015625 -17.734375 8.015625 -14.046875 C 8.015625 -10.304688 8.515625 -7.503906 9.515625 -5.640625 C 10.523438 -3.773438 12.207031 -2.84375 14.5625 -2.84375 Z "/>
</g>
<g id="glyph-0-5">
<path d="M 2 10.1875 C 4.394531 10.1875 6.359375 9.726562 7.890625 8.8125 C 9.421875 7.894531 10.660156 6.65625 11.609375 5.09375 C 12.554688 3.53125 13.3125 1.757812 13.875 -0.21875 L 4.109375 -23.28125 C 3.660156 -24.363281 3.179688 -25.097656 2.671875 -25.484375 C 2.160156 -25.878906 1.394531 -26.078125 0.375 -26.078125 L 0.21875 -26.078125 L 0.21875 -28.296875 L 12.875 -28.296875 L 12.875 -26.078125 L 12.71875 -26.078125 C 10.601562 -26.078125 9.546875 -25.234375 9.546875 -23.546875 C 9.546875 -22.941406 9.6875 -22.289062 9.96875 -21.59375 L 13.828125 -12.1875 C 14.179688 -11.382812 14.523438 -10.5 14.859375 -9.53125 C 15.191406 -8.5625 15.5 -7.632812 15.78125 -6.75 C 16.0625 -5.875 16.253906 -5.140625 16.359375 -4.546875 C 16.609375 -5.554688 16.9375 -6.609375 17.34375 -7.703125 C 17.75 -8.796875 18.125 -9.867188 18.46875 -10.921875 L 22.015625 -21.21875 C 22.328125 -22.0625 22.484375 -22.816406 22.484375 -23.484375 C 22.484375 -25.210938 21.320312 -26.078125 19 -26.078125 L 18.84375 -26.078125 L 18.84375 -28.296875 L 29.828125 -28.296875 L 29.828125 -26.078125 L 29.65625 -26.078125 C 28.632812 -26.078125 27.859375 -25.8125 27.328125 -25.28125 C 26.804688 -24.75 26.25 -23.640625 25.65625 -21.953125 L 17.625 0.21875 C 16.707031 2.78125 15.828125 4.867188 14.984375 6.484375 C 14.140625 8.109375 13.195312 9.367188 12.15625 10.265625 C 11.125 11.160156 9.832031 11.785156 8.28125 12.140625 C 6.738281 12.492188 4.804688 12.671875 2.484375 12.671875 L 2 12.671875 Z "/>
</g>
<g id="glyph-0-6">
<path d="M 1.3125 -12.40625 L 1.3125 -16.359375 L 15.046875 -16.359375 L 15.046875 -12.40625 Z "/>
</g>
<g id="glyph-0-7">
</g>
<g id="glyph-0-8">
<path d="M 19.046875 0.53125 C 15.566406 0.53125 12.628906 -0.273438 10.234375 -1.890625 C 7.847656 -3.515625 6.046875 -5.773438 4.828125 -8.671875 C 3.617188 -11.578125 3.015625 -14.984375 3.015625 -18.890625 C 3.015625 -22.691406 3.65625 -26.046875 4.9375 -28.953125 C 6.21875 -31.859375 8.113281 -34.128906 10.625 -35.765625 C 13.144531 -37.398438 16.253906 -38.21875 19.953125 -38.21875 C 23.535156 -38.21875 26.207031 -37.648438 27.96875 -36.515625 C 29.726562 -35.390625 30.609375 -33.984375 30.609375 -32.296875 C 30.609375 -31.171875 30.164062 -30.273438 29.28125 -29.609375 C 28.40625 -28.941406 27.316406 -28.609375 26.015625 -28.609375 C 26.015625 -29.703125 25.820312 -30.765625 25.4375 -31.796875 C 25.050781 -32.835938 24.410156 -33.703125 23.515625 -34.390625 C 22.617188 -35.078125 21.394531 -35.421875 19.84375 -35.421875 C 15.863281 -35.421875 13.039062 -33.984375 11.375 -31.109375 C 9.707031 -28.242188 8.875 -24.171875 8.875 -18.890625 C 8.875 -15.765625 9.25 -12.992188 10 -10.578125 C 10.757812 -8.171875 11.945312 -6.296875 13.5625 -4.953125 C 15.1875 -3.617188 17.28125 -2.953125 19.84375 -2.953125 C 22.414062 -2.953125 24.429688 -3.398438 25.890625 -4.296875 C 27.347656 -5.191406 28.519531 -6.238281 29.40625 -7.4375 C 29.6875 -7.257812 29.921875 -7.003906 30.109375 -6.671875 C 30.304688 -6.335938 30.40625 -5.910156 30.40625 -5.390625 C 30.40625 -4.503906 30 -3.601562 29.1875 -2.6875 C 28.375 -1.769531 27.128906 -1.003906 25.453125 -0.390625 C 23.785156 0.222656 21.648438 0.53125 19.046875 0.53125 Z "/>
</g>
<g id="glyph-0-9">
<path d="M 14.40625 0.53125 C 11.625 0.53125 9.476562 -0.285156 7.96875 -1.921875 C 6.457031 -3.554688 5.703125 -6.1875 5.703125 -9.8125 L 5.703125 -22.484375 C 5.703125 -24.035156 5.269531 -25.019531 4.40625 -25.4375 C 3.539062 -25.863281 2.53125 -26.078125 1.375 -26.078125 L 1.21875 -26.078125 L 1.21875 -28.296875 L 10.65625 -28.296875 L 10.65625 -10.078125 C 10.65625 -7.796875 11.039062 -6.019531 11.8125 -4.75 C 12.59375 -3.476562 14.054688 -2.84375 16.203125 -2.84375 C 18.523438 -2.84375 20.210938 -3.625 21.265625 -5.1875 C 22.328125 -6.757812 22.859375 -8.832031 22.859375 -11.40625 L 22.859375 -22.28125 C 22.859375 -23.925781 22.4375 -24.96875 21.59375 -25.40625 C 20.75 -25.851562 19.726562 -26.078125 18.53125 -26.078125 L 18.375 -26.078125 L 18.375 -28.296875 L 27.8125 -28.296875 L 27.8125 -5.75 C 27.8125 -4.207031 28.242188 -3.234375 29.109375 -2.828125 C 29.972656 -2.421875 30.984375 -2.21875 32.140625 -2.21875 L 32.296875 -2.21875 L 32.296875 0 L 23.90625 0 L 23.21875 -4.28125 L 22.953125 -4.28125 C 21.867188 -2.300781 20.601562 -1.003906 19.15625 -0.390625 C 17.71875 0.222656 16.132812 0.53125 14.40625 0.53125 Z "/>
</g>
<g id="glyph-0-10">
<path d="M 1.734375 0 L 1.734375 -2.21875 L 1.90625 -2.21875 C 3.09375 -2.21875 4.109375 -2.4375 4.953125 -2.875 C 5.804688 -3.3125 6.234375 -4.359375 6.234375 -6.015625 L 6.234375 -22.484375 C 6.234375 -24.035156 5.800781 -25.019531 4.9375 -25.4375 C 4.070312 -25.863281 3.0625 -26.078125 1.90625 -26.078125 L 1.734375 -26.078125 L 1.734375 -28.296875 L 9.875 -28.296875 L 10.875 -23.0625 L 11.140625 -23.0625 C 11.597656 -24.125 12.085938 -25.09375 12.609375 -25.96875 C 13.140625 -26.84375 13.84375 -27.535156 14.71875 -28.046875 C 15.601562 -28.554688 16.820312 -28.8125 18.375 -28.8125 C 20.300781 -28.8125 21.726562 -28.476562 22.65625 -27.8125 C 23.59375 -27.144531 24.0625 -26.195312 24.0625 -24.96875 C 24.0625 -23.875 23.679688 -22.972656 22.921875 -22.265625 C 22.171875 -21.566406 20.914062 -21.21875 19.15625 -21.21875 C 19.15625 -22.65625 18.941406 -23.695312 18.515625 -24.34375 C 18.097656 -25 17.378906 -25.328125 16.359375 -25.328125 C 15.378906 -25.328125 14.550781 -24.941406 13.875 -24.171875 C 13.207031 -23.398438 12.679688 -22.414062 12.296875 -21.21875 C 11.910156 -20.019531 11.628906 -18.78125 11.453125 -17.5 C 11.273438 -16.21875 11.1875 -15.066406 11.1875 -14.046875 L 11.1875 -5.75 C 11.1875 -4.207031 11.617188 -3.234375 12.484375 -2.828125 C 13.347656 -2.421875 14.359375 -2.21875 15.515625 -2.21875 L 17 -2.21875 L 17 0 Z "/>
</g>
<g id="glyph-0-11">
<path d="M 1.484375 0 L 1.484375 -2.21875 L 1.90625 -2.21875 C 3.09375 -2.21875 4.109375 -2.4375 4.953125 -2.875 C 5.804688 -3.3125 6.234375 -4.359375 6.234375 -6.015625 L 6.234375 -22.484375 C 6.234375 -24.035156 5.816406 -25.019531 4.984375 -25.4375 C 4.160156 -25.863281 3.164062 -26.078125 2 -26.078125 L 1.734375 -26.078125 L 1.734375 -28.296875 L 10.296875 -28.296875 L 10.984375 -24.015625 L 11.25 -24.015625 C 12.332031 -25.984375 13.550781 -27.273438 14.90625 -27.890625 C 16.257812 -28.503906 17.78125 -28.8125 19.46875 -28.8125 C 22.25 -28.8125 24.421875 -27.992188 25.984375 -26.359375 C 27.554688 -24.722656 28.34375 -22.09375 28.34375 -18.46875 L 28.34375 -6.015625 C 28.34375 -4.359375 28.703125 -3.3125 29.421875 -2.875 C 30.140625 -2.4375 31.097656 -2.21875 32.296875 -2.21875 L 32.5625 -2.21875 L 32.5625 0 L 23.375 0 L 23.375 -18.203125 C 23.375 -20.492188 22.941406 -22.269531 22.078125 -23.53125 C 21.222656 -24.800781 19.722656 -25.4375 17.578125 -25.4375 C 15.992188 -25.4375 14.734375 -25.039062 13.796875 -24.25 C 12.867188 -23.457031 12.203125 -22.410156 11.796875 -21.109375 C 11.390625 -19.804688 11.1875 -18.398438 11.1875 -16.890625 L 11.1875 -5.75 C 11.1875 -4.207031 11.597656 -3.234375 12.421875 -2.828125 C 13.253906 -2.421875 14.25 -2.21875 15.40625 -2.21875 L 15.671875 -2.21875 L 15.671875 0 Z "/>
</g>
<g id="glyph-0-12">
<path d="M 0 0 L 0 -2.21875 L 1 -2.21875 C 2.019531 -2.21875 2.785156 -2.476562 3.296875 -3 C 3.804688 -3.53125 4.378906 -4.640625 5.015625 -6.328125 L 16.734375 -37.6875 L 20.84375 -37.6875 L 32.78125 -5.015625 C 33.164062 -3.921875 33.628906 -3.179688 34.171875 -2.796875 C 34.722656 -2.410156 35.507812 -2.21875 36.53125 -2.21875 L 37.203125 -2.21875 L 37.203125 0 L 22.703125 0 L 22.703125 -2.21875 L 23.90625 -2.21875 C 26.019531 -2.21875 27.078125 -3.0625 27.078125 -4.75 C 27.078125 -5.03125 27.039062 -5.328125 26.96875 -5.640625 C 26.894531 -5.960938 26.789062 -6.316406 26.65625 -6.703125 L 24.546875 -12.609375 L 10.65625 -12.609375 L 8.65625 -7.078125 C 8.34375 -6.234375 8.1875 -5.472656 8.1875 -4.796875 C 8.1875 -3.078125 9.347656 -2.21875 11.671875 -2.21875 L 12.875 -2.21875 L 12.875 0 Z M 11.671875 -15.25 L 23.59375 -15.25 L 20.328125 -24.484375 C 19.753906 -26.035156 19.238281 -27.5 18.78125 -28.875 C 18.332031 -30.25 17.96875 -31.566406 17.6875 -32.828125 C 17.4375 -31.566406 17.117188 -30.351562 16.734375 -29.1875 C 16.347656 -28.03125 15.851562 -26.625 15.25 -24.96875 Z "/>
</g>
<g id="glyph-0-13">
<path d="M 14.9375 0.53125 C 12.613281 0.53125 10.546875 0.0390625 8.734375 -0.9375 C 6.921875 -1.925781 5.492188 -3.484375 4.453125 -5.609375 C 3.421875 -7.742188 2.90625 -10.535156 2.90625 -13.984375 C 2.90625 -17.753906 3.421875 -20.71875 4.453125 -22.875 C 5.492188 -25.039062 6.898438 -26.570312 8.671875 -27.46875 C 10.453125 -28.363281 12.453125 -28.8125 14.671875 -28.8125 C 16.148438 -28.8125 17.59375 -28.617188 19 -28.234375 C 20.40625 -27.847656 21.566406 -27.257812 22.484375 -26.46875 C 23.398438 -25.675781 23.859375 -24.664062 23.859375 -23.4375 C 23.859375 -22.238281 23.460938 -21.382812 22.671875 -20.875 C 21.878906 -20.363281 20.707031 -20.109375 19.15625 -20.109375 C 19.15625 -21.765625 18.847656 -23.1875 18.234375 -24.375 C 17.617188 -25.570312 16.429688 -26.171875 14.671875 -26.171875 C 13.335938 -26.171875 12.164062 -25.816406 11.15625 -25.109375 C 10.15625 -24.410156 9.378906 -23.179688 8.828125 -21.421875 C 8.285156 -19.671875 8.015625 -17.210938 8.015625 -14.046875 C 8.015625 -10.304688 8.640625 -7.515625 9.890625 -5.671875 C 11.140625 -3.828125 13.175781 -2.90625 16 -2.90625 C 17.644531 -2.90625 19.070312 -3.25 20.28125 -3.9375 C 21.5 -4.625 22.410156 -5.507812 23.015625 -6.59375 C 23.609375 -6.101562 23.90625 -5.421875 23.90625 -4.546875 C 23.90625 -3.734375 23.570312 -2.9375 22.90625 -2.15625 C 22.238281 -1.382812 21.242188 -0.742188 19.921875 -0.234375 C 18.609375 0.273438 16.945312 0.53125 14.9375 0.53125 Z "/>
</g>
<g id="glyph-0-14">
<path d="M 0.953125 0 L 0.953125 -2.21875 L 1.375 -2.21875 C 2.570312 -2.21875 3.59375 -2.4375 4.4375 -2.875 C 5.28125 -3.3125 5.703125 -4.359375 5.703125 -6.015625 L 5.703125 -34.3125 C 5.703125 -35.851562 5.269531 -36.832031 4.40625 -37.25 C 3.539062 -37.675781 2.53125 -37.890625 1.375 -37.890625 L 0.953125 -37.890625 L 0.953125 -40.109375 L 10.65625 -40.109375 L 10.65625 -28.5 C 10.65625 -27.863281 10.640625 -27.203125 10.609375 -26.515625 C 10.578125 -25.835938 10.539062 -25.25 10.5 -24.75 C 10.46875 -24.257812 10.453125 -24.015625 10.453125 -24.015625 L 10.71875 -24.015625 C 12.332031 -27.210938 14.914062 -28.8125 18.46875 -28.8125 C 21.5 -28.8125 23.8125 -27.992188 25.40625 -26.359375 C 27.007812 -24.722656 27.8125 -22.09375 27.8125 -18.46875 L 27.8125 -6.015625 C 27.8125 -4.359375 28.1875 -3.3125 28.9375 -2.875 C 29.695312 -2.4375 30.675781 -2.21875 31.875 -2.21875 L 32.03125 -2.21875 L 32.03125 0 L 22.859375 0 L 22.859375 -18.203125 C 22.859375 -20.492188 22.425781 -22.269531 21.5625 -23.53125 C 20.695312 -24.800781 19.191406 -25.4375 17.046875 -25.4375 C 14.867188 -25.4375 13.257812 -24.660156 12.21875 -23.109375 C 11.175781 -21.566406 10.65625 -19.492188 10.65625 -16.890625 L 10.65625 -5.75 C 10.65625 -4.207031 11.085938 -3.234375 11.953125 -2.828125 C 12.816406 -2.421875 13.828125 -2.21875 14.984375 -2.21875 L 15.140625 -2.21875 L 15.140625 0 Z "/>
</g>
<g id="glyph-0-15">
<path d="M 8.5 -33.5625 C 7.65625 -33.5625 6.941406 -33.804688 6.359375 -34.296875 C 5.773438 -34.796875 5.484375 -35.644531 5.484375 -36.84375 C 5.484375 -38.070312 5.773438 -38.921875 6.359375 -39.390625 C 6.941406 -39.867188 7.65625 -40.109375 8.5 -40.109375 C 9.3125 -40.109375 10.015625 -39.867188 10.609375 -39.390625 C 11.203125 -38.921875 11.5 -38.070312 11.5 -36.84375 C 11.5 -35.644531 11.203125 -34.796875 10.609375 -34.296875 C 10.015625 -33.804688 9.3125 -33.5625 8.5 -33.5625 Z M 1.21875 0 L 1.21875 -2.21875 L 1.90625 -2.21875 C 3.0625 -2.21875 4.070312 -2.421875 4.9375 -2.828125 C 5.800781 -3.234375 6.234375 -4.207031 6.234375 -5.75 L 6.234375 -22.484375 C 6.234375 -24.035156 5.800781 -25.019531 4.9375 -25.4375 C 4.070312 -25.863281 3.0625 -26.078125 1.90625 -26.078125 L 1.734375 -26.078125 L 1.734375 -28.296875 L 11.1875 -28.296875 L 11.1875 -6.015625 C 11.1875 -4.359375 11.609375 -3.3125 12.453125 -2.875 C 13.296875 -2.4375 14.316406 -2.21875 15.515625 -2.21875 L 16.203125 -2.21875 L 16.203125 0 Z "/>
</g>
<g id="glyph-0-16">
<path d="M 4.109375 -23.28125 C 3.722656 -24.40625 3.257812 -25.148438 2.71875 -25.515625 C 2.175781 -25.890625 1.34375 -26.078125 0.21875 -26.078125 L 0.21875 -28.296875 L 13.40625 -28.296875 L 13.40625 -26.078125 L 12.71875 -26.078125 C 10.601562 -26.078125 9.546875 -25.234375 9.546875 -23.546875 C 9.546875 -23.265625 9.582031 -22.960938 9.65625 -22.640625 C 9.726562 -22.328125 9.832031 -21.976562 9.96875 -21.59375 L 13.5625 -11.609375 C 14.050781 -10.304688 14.523438 -8.890625 14.984375 -7.359375 C 15.441406 -5.828125 15.796875 -4.601562 16.046875 -3.6875 C 16.222656 -4.425781 16.59375 -5.5 17.15625 -6.90625 C 17.71875 -8.320312 18.226562 -9.660156 18.6875 -10.921875 L 22.484375 -21.21875 C 22.796875 -22.0625 22.953125 -22.816406 22.953125 -23.484375 C 22.953125 -25.210938 21.789062 -26.078125 19.46875 -26.078125 L 19.109375 -26.078125 L 19.109375 -28.296875 L 30.40625 -28.296875 L 30.40625 -26.078125 L 29.765625 -26.078125 C 28.742188 -26.078125 27.976562 -25.8125 27.46875 -25.28125 C 26.957031 -24.75 26.382812 -23.640625 25.75 -21.953125 L 17.421875 0 L 12.609375 0 Z "/>
</g>
</g>
</defs>
<g fill="rgb(100%, 27.843137%, 34.117647%)" fill-opacity="1">
<use xlink:href="#glyph-0-0" x="30" y="76.418945"/>
<use xlink:href="#glyph-0-1" x="59" y="76.418945"/>
<use xlink:href="#glyph-0-2" x="78" y="76.418945"/>
<use xlink:href="#glyph-0-3" x="106" y="76.418945"/>
<use xlink:href="#glyph-0-4" x="136" y="76.418945"/>
<use xlink:href="#glyph-0-5" x="168" y="76.418945"/>
<use xlink:href="#glyph-0-6" x="198" y="76.418945"/>
<use xlink:href="#glyph-0-0" x="214" y="76.418945"/>
<use xlink:href="#glyph-0-1" x="243" y="76.418945"/>
<use xlink:href="#glyph-0-3" x="262" y="76.418945"/>
<use xlink:href="#glyph-0-1" x="292" y="76.418945"/>
<use xlink:href="#glyph-0-2" x="311" y="76.418945"/>
<use xlink:href="#glyph-0-7" x="339" y="76.418945"/>
<use xlink:href="#glyph-0-8" x="353" y="76.418945"/>
<use xlink:href="#glyph-0-9" x="385" y="76.418945"/>
<use xlink:href="#glyph-0-10" x="419" y="76.418945"/>
<use xlink:href="#glyph-0-10" x="444" y="76.418945"/>
<use xlink:href="#glyph-0-2" x="469" y="76.418945"/>
<use xlink:href="#glyph-0-11" x="497" y="76.418945"/>
<use xlink:href="#glyph-0-1" x="531" y="76.418945"/>
<use xlink:href="#glyph-0-7" x="550" y="76.418945"/>
<use xlink:href="#glyph-0-12" x="564" y="76.418945"/>
<use xlink:href="#glyph-0-13" x="600" y="76.418945"/>
<use xlink:href="#glyph-0-14" x="626" y="76.418945"/>
<use xlink:href="#glyph-0-15" x="660" y="76.418945"/>
<use xlink:href="#glyph-0-2" x="677" y="76.418945"/>
<use xlink:href="#glyph-0-16" x="705" y="76.418945"/>
<use xlink:href="#glyph-0-2" x="736" y="76.418945"/>
<use xlink:href="#glyph-0-4" x="764" y="76.418945"/>
</g>
</svg>
