<?xml version="1.0" encoding="UTF-8"?>
<svg xmlns="http://www.w3.org/2000/svg" xmlns:xlink="http://www.w3.org/1999/xlink" width="854" height="480" viewBox="0 0 854 480">
<defs>
<g>
<g id="glyph-0-0">
<path d="M 0.125 0 L 0.125 -0.234375 L 0.3125 -0.234375 C 0.375 -0.234375 0.425781 -0.25 0.46875 -0.28125 C 0.507812 -0.3125 0.53125 -0.394531 0.53125 -0.53125 L 0.53125 -2.640625 C 0.53125 -2.765625 0.507812 -2.84375 0.46875 -2.875 C 0.425781 -2.914062 0.375 -2.9375 0.3125 -2.9375 L 0.125 -2.9375 L 0.125 -3.171875 L 1.65625 -3.171875 L 1.65625 -2.9375 L 1.46875 -2.9375 C 1.40625 -2.9375 1.351562 -2.914062 1.3125 -2.875 C 1.269531 -2.84375 1.25 -2.765625 1.25 -2.640625 L 1.25 -0.53125 C 1.25 -0.394531 1.269531 -0.3125 1.3125 -0.28125 C 1.351562 -0.25 1.40625 -0.234375 1.46875 -0.234375 L 1.65625 -0.234375 L 1.65625 0 Z "/>
</g>
<g id="glyph-0-1">
<path d="M 1.359375 0.046875 C 1.003906 0.046875 0.722656 -0.0546875 0.515625 -0.265625 C 0.304688 -0.472656 0.203125 -0.785156 0.203125 -1.203125 C 0.203125 -1.617188 0.300781 -1.925781 0.5 -2.125 C 0.695312 -2.332031 0.984375 -2.4375 1.359375 -2.4375 C 1.722656 -2.4375 2.003906 -2.332031 2.203125 -2.125 C 2.410156 -1.925781 2.515625 -1.617188 2.515625 -1.203125 C 2.515625 -0.785156 2.414062 -0.472656 2.21875 -0.265625 C 2.019531 -0.0546875 1.734375 0.046875 1.359375 0.046875 Z M 1.359375 -0.234375 C 1.535156 -0.234375 1.65625 -0.316406 1.71875 -0.484375 C 1.789062 -0.648438 1.828125 -0.890625 1.828125 -1.203125 C 1.828125 -1.515625 1.789062 -1.75 1.71875 -1.90625 C 1.644531 -2.070312 1.523438 -2.15625 1.359375 -2.15625 C 1.179688 -2.15625 1.054688 -2.070312 0.984375 -1.90625 C 0.921875 -1.75 0.890625 -1.515625 0.890625 -1.203125 C 0.890625 -0.890625 0.925781 -0.648438 1 -0.484375 C 1.070312 -0.316406 1.191406 -0.234375 1.359375 -0.234375 Z "/>
</g>
<g id="glyph-0-2">
<path d="M 0.09375 0 L 0.09375 -0.234375 C 0.195312 -0.234375 0.28125 -0.25 0.34375 -0.28125 C 0.40625 -0.320312 0.4375 -0.410156 0.4375 -0.546875 L 0.4375 -1.859375 C 0.4375 -1.984375 0.40625 -2.0625 0.34375 -2.09375 C 0.289062 -2.125 0.21875 -2.140625 0.125 -2.140625 L 0.109375 -2.140625 L 0.109375 -2.375 L 1.046875 -2.375 L 1.09375 -2.0625 L 1.125 -2.0625 C 1.1875 -2.175781 1.25 -2.257812 1.3125 -2.3125 C 1.382812 -2.363281 1.457031 -2.394531 1.53125 -2.40625 C 1.613281 -2.425781 1.703125 -2.4375 1.796875 -2.4375 C 2.023438 -2.4375 2.203125 -2.367188 2.328125 -2.234375 C 2.460938 -2.097656 2.53125 -1.878906 2.53125 -1.578125 L 2.53125 -0.546875 C 2.53125 -0.410156 2.554688 -0.320312 2.609375 -0.28125 C 2.660156 -0.25 2.734375 -0.234375 2.828125 -0.234375 L 2.84375 -0.234375 L 2.84375 0 L 1.859375 0 L 1.859375 -1.453125 C 1.859375 -1.648438 1.832031 -1.800781 1.78125 -1.90625 C 1.726562 -2.007812 1.632812 -2.0625 1.5 -2.0625 C 1.40625 -2.0625 1.328125 -2.03125 1.265625 -1.96875 C 1.210938 -1.90625 1.175781 -1.816406 1.15625 -1.703125 C 1.132812 -1.597656 1.125 -1.488281 1.125 -1.375 L 1.125 -0.53125 C 1.125 -0.40625 1.148438 -0.320312 1.203125 -0.28125 C 1.265625 -0.25 1.34375 -0.234375 1.4375 -0.234375 L 1.453125 -0.234375 L 1.453125 0 Z "/>
</g>
<g id="glyph-0-3">
</g>
<g id="glyph-0-4">
<path d="M 0.765625 -2.78125 C 0.648438 -2.78125 0.554688 -2.804688 0.484375 -2.859375 C 0.410156 -2.910156 0.375 -2.988281 0.375 -3.09375 C 0.375 -3.207031 0.410156 -3.289062 0.484375 -3.34375 C 0.554688 -3.394531 0.648438 -3.421875 0.765625 -3.421875 C 0.867188 -3.421875 0.957031 -3.394531 1.03125 -3.34375 C 1.101562 -3.289062 1.140625 -3.207031 1.140625 -3.09375 C 1.140625 -2.988281 1.101562 -2.910156 1.03125 -2.859375 C 0.957031 -2.804688 0.867188 -2.78125 0.765625 -2.78125 Z M 0.078125 0 L 0.078125 -0.234375 L 0.125 -0.234375 C 0.164062 -0.234375 0.210938 -0.238281 0.265625 -0.25 C 0.316406 -0.269531 0.359375 -0.300781 0.390625 -0.34375 C 0.421875 -0.382812 0.4375 -0.445312 0.4375 -0.53125 L 0.4375 -1.875 C 0.4375 -1.957031 0.421875 -2.015625 0.390625 -2.046875 C 0.359375 -2.085938 0.316406 -2.113281 0.265625 -2.125 C 0.210938 -2.132812 0.164062 -2.140625 0.125 -2.140625 L 0.078125 -2.140625 L 0.078125 -2.375 L 1.125 -2.375 L 1.125 -0.53125 C 1.125 -0.445312 1.140625 -0.382812 1.171875 -0.34375 C 1.203125 -0.300781 1.242188 -0.269531 1.296875 -0.25 C 1.347656 -0.238281 1.394531 -0.234375 1.4375 -0.234375 L 1.484375 -0.234375 L 1.484375 0 Z "/>
</g>
<g id="glyph-0-5">
<path d="M 1.171875 0.046875 C 0.910156 0.046875 0.703125 0.015625 0.546875 -0.046875 C 0.390625 -0.109375 0.28125 -0.1875 0.21875 -0.28125 C 0.164062 -0.382812 0.140625 -0.484375 0.140625 -0.578125 C 0.140625 -0.679688 0.160156 -0.757812 0.203125 -0.8125 C 0.253906 -0.875 0.316406 -0.914062 0.390625 -0.9375 C 0.460938 -0.96875 0.546875 -0.984375 0.640625 -0.984375 C 0.640625 -0.734375 0.691406 -0.539062 0.796875 -0.40625 C 0.910156 -0.28125 1.0625 -0.21875 1.25 -0.21875 C 1.414062 -0.21875 1.546875 -0.265625 1.640625 -0.359375 C 1.742188 -0.453125 1.796875 -0.566406 1.796875 -0.703125 C 1.796875 -0.847656 1.734375 -0.96875 1.609375 -1.0625 C 1.484375 -1.15625 1.296875 -1.253906 1.046875 -1.359375 C 0.835938 -1.441406 0.671875 -1.53125 0.546875 -1.625 C 0.429688 -1.71875 0.347656 -1.820312 0.296875 -1.9375 C 0.242188 -2.050781 0.21875 -2.179688 0.21875 -2.328125 C 0.21875 -2.503906 0.265625 -2.65625 0.359375 -2.78125 C 0.453125 -2.914062 0.582031 -3.019531 0.75 -3.09375 C 0.914062 -3.175781 1.101562 -3.21875 1.3125 -3.21875 C 1.632812 -3.21875 1.867188 -3.164062 2.015625 -3.0625 C 2.171875 -2.96875 2.25 -2.847656 2.25 -2.703125 C 2.25 -2.597656 2.203125 -2.507812 2.109375 -2.4375 C 2.023438 -2.363281 1.890625 -2.328125 1.703125 -2.328125 C 1.703125 -2.410156 1.6875 -2.5 1.65625 -2.59375 C 1.625 -2.6875 1.570312 -2.765625 1.5 -2.828125 C 1.4375 -2.898438 1.347656 -2.9375 1.234375 -2.9375 C 1.117188 -2.9375 1.015625 -2.898438 0.921875 -2.828125 C 0.835938 -2.765625 0.796875 -2.664062 0.796875 -2.53125 C 0.796875 -2.445312 0.816406 -2.367188 0.859375 -2.296875 C 0.898438 -2.234375 0.972656 -2.164062 1.078125 -2.09375 C 1.179688 -2.019531 1.332031 -1.945312 1.53125 -1.875 C 1.832031 -1.75 2.046875 -1.613281 2.171875 -1.46875 C 2.304688 -1.320312 2.375 -1.140625 2.375 -0.921875 C 2.375 -0.734375 2.320312 -0.566406 2.21875 -0.421875 C 2.125 -0.273438 1.988281 -0.160156 1.8125 -0.078125 C 1.632812 0.00390625 1.421875 0.046875 1.171875 0.046875 Z "/>
</g>
<g id="glyph-0-6">
<path d="M 0.078125 0 L 0.078125 -0.234375 L 0.125 -0.234375 C 0.164062 -0.234375 0.210938 -0.238281 0.265625 -0.25 C 0.316406 -0.269531 0.359375 -0.300781 0.390625 -0.34375 C 0.421875 -0.382812 0.4375 -0.445312 0.4375 -0.53125 L 0.4375 -2.859375 C 0.4375 -2.941406 0.421875 -3.003906 0.390625 -3.046875 C 0.359375 -3.085938 0.316406 -3.113281 0.265625 -3.125 C 0.210938 -3.132812 0.164062 -3.140625 0.125 -3.140625 L 0.078125 -3.140625 L 0.078125 -3.375 L 1.125 -3.375 L 1.125 -0.53125 C 1.125 -0.445312 1.140625 -0.382812 1.171875 -0.34375 C 1.203125 -0.300781 1.242188 -0.269531 1.296875 -0.25 C 1.347656 -0.238281 1.394531 -0.234375 1.4375 -0.234375 L 1.484375 -0.234375 L 1.484375 0 Z "/>
</g>
<g id="glyph-0-7">
<path d="M 1.140625 0.046875 C 0.910156 0.046875 0.734375 -0.0234375 0.609375 -0.171875 C 0.484375 -0.316406 0.421875 -0.535156 0.421875 -0.828125 L 0.421875 -1.828125 C 0.421875 -1.960938 0.394531 -2.046875 0.34375 -2.078125 C 0.300781 -2.117188 0.226562 -2.140625 0.125 -2.140625 L 0.109375 -2.140625 L 0.109375 -2.375 L 1.09375 -2.375 L 1.09375 -0.953125 C 1.09375 -0.765625 1.117188 -0.613281 1.171875 -0.5 C 1.222656 -0.382812 1.3125 -0.328125 1.4375 -0.328125 C 1.582031 -0.328125 1.6875 -0.390625 1.75 -0.515625 C 1.8125 -0.640625 1.84375 -0.800781 1.84375 -1 L 1.84375 -1.859375 C 1.84375 -1.984375 1.8125 -2.0625 1.75 -2.09375 C 1.6875 -2.125 1.609375 -2.140625 1.515625 -2.140625 L 1.515625 -2.375 L 2.515625 -2.375 L 2.515625 -0.515625 C 2.515625 -0.390625 2.539062 -0.3125 2.59375 -0.28125 C 2.65625 -0.25 2.726562 -0.234375 2.8125 -0.234375 L 2.84375 -0.234375 L 2.84375 0 L 1.96875 0 L 1.875 -0.3125 L 1.84375 -0.3125 C 1.757812 -0.15625 1.65625 -0.0546875 1.53125 -0.015625 C 1.414062 0.0234375 1.285156 0.046875 1.140625 0.046875 Z "/>
</g>
<g id="glyph-0-8">
<path d="M 1.078125 0.046875 C 0.878906 0.046875 0.71875 -0.00390625 0.59375 -0.109375 C 0.476562 -0.210938 0.421875 -0.394531 0.421875 -0.65625 L 0.421875 -2.078125 L 0.09375 -2.078125 L 0.09375 -2.296875 C 0.1875 -2.296875 0.269531 -2.316406 0.34375 -2.359375 C 0.425781 -2.398438 0.488281 -2.441406 0.53125 -2.484375 C 0.625 -2.585938 0.691406 -2.734375 0.734375 -2.921875 L 1.09375 -2.921875 L 1.09375 -2.375 L 1.671875 -2.375 L 1.671875 -2.078125 L 1.09375 -2.078125 L 1.09375 -0.703125 C 1.09375 -0.566406 1.113281 -0.46875 1.15625 -0.40625 C 1.207031 -0.34375 1.285156 -0.3125 1.390625 -0.3125 C 1.453125 -0.3125 1.507812 -0.316406 1.5625 -0.328125 C 1.613281 -0.335938 1.660156 -0.347656 1.703125 -0.359375 L 1.703125 -0.0625 C 1.660156 -0.0390625 1.582031 -0.0195312 1.46875 0 C 1.363281 0.03125 1.234375 0.046875 1.078125 0.046875 Z "/>
</g>
</g>
</defs>
<g fill="rgb(100%, 50.196078%, 50.196078%)" fill-opacity="1">
<use xlink:href="#glyph-0-0" x="30" y="24.750977"/>
<use xlink:href="#glyph-0-1" x="32" y="24.750977"/>
<use xlink:href="#glyph-0-2" x="35" y="24.750977"/>
<use xlink:href="#glyph-0-3" x="38" y="24.750977"/>
<use xlink:href="#glyph-0-4" x="39" y="24.750977"/>
<use xlink:href="#glyph-0-2" x="41" y="24.750977"/>
<use xlink:href="#glyph-0-3" x="44" y="24.750977"/>
</g>
<g fill="rgb(100%, 50.196078%, 50.196078%)" fill-opacity="1">
<use xlink:href="#glyph-0-5" x="30" y="29.083008"/>
<use xlink:href="#glyph-0-1" x="33" y="29.083008"/>
<use xlink:href="#glyph-0-6" x="36" y="29.083008"/>
<use xlink:href="#glyph-0-7" x="38" y="29.083008"/>
<use xlink:href="#glyph-0-8" x="41" y="29.083008"/>
<use xlink:href="#glyph-0-4" x="43" y="29.083008"/>
<use xlink:href="#glyph-0-1" x="45" y="29.083008"/>
<use xlink:href="#glyph-0-2" x="48" y="29.083008"/>
</g>
</svg>
